<mxfile host="app.diagrams.net" modified="2020-11-02T18:47:35.751Z" agent="5.0 (Windows NT 10.0; Win64; x64) AppleWebKit/537.36 (KHTML, like Gecko) Chrome/86.0.4240.111 Safari/537.36" etag="SpGqv2YtdCQ-tQvEGV9W" version="13.8.8" type="github">
  <diagram id="kgpKYQtTHZ0yAKxKKP6v" name="Page-1">
    <mxGraphModel dx="1038" dy="547" grid="1" gridSize="10" guides="1" tooltips="1" connect="1" arrows="1" fold="1" page="1" pageScale="1" pageWidth="850" pageHeight="1100" math="0" shadow="0">
      <root>
        <mxCell id="0" />
        <mxCell id="1" parent="0" />
        <mxCell id="zJqRCtabx6rDrNxqIQUS-2" value="training.py" style="rounded=0;whiteSpace=wrap;html=1;labelPosition=center;verticalLabelPosition=top;align=center;verticalAlign=bottom;" vertex="1" parent="1">
          <mxGeometry x="110" y="90" width="120" height="240" as="geometry" />
        </mxCell>
        <mxCell id="zJqRCtabx6rDrNxqIQUS-3" value="Tabular dataset" style="whiteSpace=wrap;html=1;aspect=fixed;" vertex="1" parent="1">
          <mxGeometry x="130" y="107" width="80" height="80" as="geometry" />
        </mxCell>
        <mxCell id="zJqRCtabx6rDrNxqIQUS-5" value="Scikit-learn Logistic Regression" style="whiteSpace=wrap;html=1;aspect=fixed;" vertex="1" parent="1">
          <mxGeometry x="130" y="240" width="80" height="80" as="geometry" />
        </mxCell>
        <mxCell id="zJqRCtabx6rDrNxqIQUS-9" value="" style="endArrow=classic;html=1;entryX=0.5;entryY=0;entryDx=0;entryDy=0;" edge="1" parent="1" source="zJqRCtabx6rDrNxqIQUS-3" target="zJqRCtabx6rDrNxqIQUS-5">
          <mxGeometry width="50" height="50" relative="1" as="geometry">
            <mxPoint x="170" y="237" as="sourcePoint" />
            <mxPoint x="170" y="257.71067811865476" as="targetPoint" />
          </mxGeometry>
        </mxCell>
        <mxCell id="zJqRCtabx6rDrNxqIQUS-10" value="Notebook" style="rounded=0;whiteSpace=wrap;html=1;labelPosition=center;verticalLabelPosition=top;align=center;verticalAlign=bottom;" vertex="1" parent="1">
          <mxGeometry x="250" y="90" width="400" height="240" as="geometry" />
        </mxCell>
        <mxCell id="zJqRCtabx6rDrNxqIQUS-11" value="Tabular dataset" style="whiteSpace=wrap;html=1;aspect=fixed;" vertex="1" parent="1">
          <mxGeometry x="270" y="107" width="80" height="80" as="geometry" />
        </mxCell>
        <mxCell id="zJqRCtabx6rDrNxqIQUS-13" value="" style="endArrow=classic;html=1;" edge="1" parent="1" source="zJqRCtabx6rDrNxqIQUS-11">
          <mxGeometry width="50" height="50" relative="1" as="geometry">
            <mxPoint x="350" y="197" as="sourcePoint" />
            <mxPoint x="400" y="147" as="targetPoint" />
          </mxGeometry>
        </mxCell>
        <mxCell id="zJqRCtabx6rDrNxqIQUS-14" value="AutoML" style="whiteSpace=wrap;html=1;aspect=fixed;" vertex="1" parent="1">
          <mxGeometry x="400" y="107" width="80" height="80" as="geometry" />
        </mxCell>
        <mxCell id="zJqRCtabx6rDrNxqIQUS-15" value="" style="endArrow=classic;html=1;" edge="1" parent="1">
          <mxGeometry width="50" height="50" relative="1" as="geometry">
            <mxPoint x="480" y="147" as="sourcePoint" />
            <mxPoint x="530" y="147" as="targetPoint" />
          </mxGeometry>
        </mxCell>
        <mxCell id="zJqRCtabx6rDrNxqIQUS-16" value="AutoML&lt;br&gt;Model" style="whiteSpace=wrap;html=1;aspect=fixed;" vertex="1" parent="1">
          <mxGeometry x="530" y="107" width="80" height="80" as="geometry" />
        </mxCell>
        <mxCell id="zJqRCtabx6rDrNxqIQUS-17" value="Hyperdrive Model" style="whiteSpace=wrap;html=1;aspect=fixed;" vertex="1" parent="1">
          <mxGeometry x="270" y="240" width="80" height="80" as="geometry" />
        </mxCell>
        <mxCell id="zJqRCtabx6rDrNxqIQUS-18" value="" style="endArrow=classic;html=1;entryX=0;entryY=0.5;entryDx=0;entryDy=0;" edge="1" parent="1">
          <mxGeometry width="50" height="50" relative="1" as="geometry">
            <mxPoint x="356" y="270" as="sourcePoint" />
            <mxPoint x="526" y="270" as="targetPoint" />
          </mxGeometry>
        </mxCell>
        <mxCell id="zJqRCtabx6rDrNxqIQUS-19" value="Optimized Model" style="whiteSpace=wrap;html=1;aspect=fixed;" vertex="1" parent="1">
          <mxGeometry x="530" y="230" width="80" height="80" as="geometry" />
        </mxCell>
      </root>
    </mxGraphModel>
  </diagram>
</mxfile>
